<?xml version="1.0" encoding="UTF-8" standalone="no"?>
<!-- Created with Inkscape (http://www.inkscape.org/) -->

<svg
   width="59.53125mm"
   height="77.950279mm"
   viewBox="0 0 59.531251 77.95028"
   version="1.1"
   id="svg5"
   inkscape:export-filename="perfillinkedin.svg"
   inkscape:export-xdpi="178.72"
   inkscape:export-ydpi="178.72"
   inkscape:version="1.4.2 (f4327f4, 2025-05-13)"
   sodipodi:docname="perfillinkedin2.svg"
   xmlns:inkscape="http://www.inkscape.org/namespaces/inkscape"
   xmlns:sodipodi="http://sodipodi.sourceforge.net/DTD/sodipodi-0.dtd"
   xmlns="http://www.w3.org/2000/svg"
   xmlns:svg="http://www.w3.org/2000/svg">
  <sodipodi:namedview
     id="namedview7"
     pagecolor="#ffffff"
     bordercolor="#111111"
     borderopacity="1"
     inkscape:showpageshadow="0"
     inkscape:pageopacity="0"
     inkscape:pagecheckerboard="1"
     inkscape:deskcolor="#d1d1d1"
     inkscape:document-units="mm"
     showgrid="false"
     inkscape:zoom="1.3883617"
     inkscape:cx="68.425973"
     inkscape:cy="166.74329"
     inkscape:window-width="1920"
     inkscape:window-height="1027"
     inkscape:window-x="1358"
     inkscape:window-y="-8"
     inkscape:window-maximized="1"
     inkscape:current-layer="layer1">
    <inkscape:page
       x="0"
       y="0"
       width="59.53125"
       height="77.950279"
       id="page2"
       margin="0"
       bleed="0" />
  </sodipodi:namedview>
  <defs
     id="defs2">
    <linearGradient
       id="linearGradient4695"
       inkscape:swatch="solid">
      <stop
         style="stop-color:#000000;stop-opacity:1;"
         offset="0"
         id="stop4693" />
    </linearGradient>
    <linearGradient
       id="linearGradient3101"
       inkscape:swatch="solid">
      <stop
         style="stop-color:#00ff00;stop-opacity:1;"
         offset="0"
         id="stop3099" />
    </linearGradient>
    <linearGradient
       id="linearGradient4436"
       inkscape:swatch="gradient">
      <stop
         style="stop-color:#cbc7bb;stop-opacity:1;"
         offset="0"
         id="stop4432" />
      <stop
         style="stop-color:#ffffff;stop-opacity:1;"
         offset="1"
         id="stop4434" />
    </linearGradient>
  </defs>
  <g
     inkscape:label="Layer 1"
     inkscape:groupmode="layer"
     id="layer1"
     transform="translate(-139.92841,-125.61631)">
    <g
       id="text1451-4-9"
       style="font-size:26.1534px;line-height:1.25;font-family:Lexend;-inkscape-font-specification:'Lexend, Normal';text-align:center;text-orientation:upright;text-anchor:middle;fill:#ffffff;stroke-width:0.741743"
       aria-label="LICS">
      <path
         d="m 140.6109,203.3051 v -18.30738 h 2.82457 v 15.58743 h 8.57832 v 2.71995 z"
         id="path1" />
      <path
         d="m 155.59683,203.3051 v -2.61534 h 2.95533 v -13.0767 h -2.95533 v -2.61534 h 8.73523 v 2.61534 h -2.95533 v 13.0767 h 2.95533 v 2.61534 z"
         id="path2" />
      <path
         d="m 176.20572,203.56663 q -1.9092,0 -3.50455,-0.67998 -1.59536,-0.67999 -2.77227,-1.93536 -1.1769,-1.28151 -1.83073,-3.00764 -0.62768,-1.72612 -0.62768,-3.79224 0,-1.96151 0.67998,-3.63532 0.70615,-1.69997 1.93536,-2.98149 1.22921,-1.28152 2.85072,-1.98766 1.62151,-0.70614 3.50455,-0.70614 1.33383,0 2.58919,0.41845 1.28151,0.3923 2.3015,1.1246 1.04613,0.70614 1.69997,1.62151 l -1.88305,1.96151 q -0.75844,-0.75845 -1.54305,-1.25537 -0.75845,-0.52307 -1.5692,-0.7846 -0.7846,-0.26153 -1.59536,-0.26153 -1.28151,0 -2.40611,0.49691 -1.09844,0.47076 -1.93535,1.33382 -0.81076,0.86307 -1.28152,2.06612 -0.47076,1.17691 -0.47076,2.58919 0,1.49074 0.44461,2.71995 0.47076,1.20306 1.30767,2.06612 0.83691,0.86306 1.98766,1.33383 1.1769,0.4446 2.58918,0.4446 0.86306,0 1.69997,-0.23538 0.83691,-0.23538 1.56921,-0.67999 0.73229,-0.4446 1.33382,-1.04613 l 1.41228,2.3015 q -0.60152,0.70614 -1.64766,1.28151 -1.01998,0.57538 -2.3015,0.91537 -1.25536,0.31384 -2.53688,0.31384 z m 15.97975,0 q -1.49074,0 -2.77226,-0.3923 -1.25536,-0.3923 -2.3015,-1.1769 -1.01998,-0.81076 -1.83074,-1.98766 l 1.93536,-2.22304 q 1.28151,1.83074 2.45842,2.53688 1.1769,0.70614 2.79841,0.70614 0.99383,0 1.80458,-0.31384 0.81076,-0.31384 1.28152,-0.86306 0.47076,-0.54922 0.47076,-1.25536 0,-0.47076 -0.15692,-0.88922 -0.15692,-0.41845 -0.49691,-0.75845 -0.31384,-0.33999 -0.83691,-0.62768 -0.49692,-0.28769 -1.1769,-0.49691 -0.67999,-0.23538 -1.56921,-0.3923 -1.41228,-0.28769 -2.45842,-0.75845 -1.04613,-0.47076 -1.75228,-1.17691 -0.70614,-0.70614 -1.04613,-1.59535 -0.34,-0.91537 -0.34,-2.03997 0,-1.09844 0.47076,-2.03996 0.49692,-0.94153 1.33383,-1.62151 0.86306,-0.70615 2.01381,-1.07229 1.15075,-0.3923 2.48457,-0.3923 1.41229,0 2.58919,0.36614 1.1769,0.36615 2.09227,1.09845 0.91537,0.70614 1.5169,1.75227 l -1.98766,1.96151 q -0.52307,-0.86306 -1.1769,-1.43844 -0.65384,-0.60153 -1.43844,-0.88921 -0.7846,-0.31384 -1.67382,-0.31384 -1.01998,0 -1.77843,0.31384 -0.75845,0.31384 -1.20305,0.88921 -0.41846,0.54922 -0.41846,1.30767 0,0.54922 0.20923,1.01998 0.20923,0.44461 0.62768,0.81076 0.44461,0.33999 1.1769,0.62768 0.7323,0.26154 1.75228,0.47076 1.43844,0.31384 2.56303,0.81076 1.1246,0.47076 1.9092,1.12459 0.7846,0.65384 1.17691,1.46459 0.41845,0.81076 0.41845,1.75228 0,1.75228 -0.81076,3.0338 -0.81075,1.28151 -2.3015,1.98766 -1.49074,0.67998 -3.55686,0.67998 z"
         id="path3" />
    </g>
    <path
       style="fill:#ffffff;stroke:none;stroke-width:0.999999"
       d="m 187.73513,179.16414 c 0,0 -4.48269,-7.90392 -4.48269,-21.50438 0,-13.60043 10.44228,-15.50175 4.48269,-5.17941 h 11.72328 c 0,-11.5622 0.43875,-17.05302 -15.13418,-17.05302 -0.27622,0 0.17538,-3.89821 14.98833,0.0707 v -9.52422 c 0,0 -19.74081,-0.80438 -25.77617,0 -6.13492,0.81768 -9.00093,7.85552 -14.19875,11.83982 -6.48668,4.97226 -19.35166,-2.06528 -19.35166,15.0571 0,14.54961 -1.96175,-1.44889 17.01789,3.63669 9.10418,2.43946 2.33377,22.46176 2.33377,22.46176 z"
       id="path745-7-8-6-3"
       sodipodi:nodetypes="czccsccsasscc" />
  </g>
</svg>
